<?xml version="1.0" encoding="UTF-8"?>
<svg xmlns="http://www.w3.org/2000/svg" xmlns:xlink="http://www.w3.org/1999/xlink" version="1.1" viewBox="0 0 1817 807">
  <defs>
    <style>
      .cls-1, .cls-2 {
        fill: none;
      }

      .cls-3 {
        fill: #fa6602;
      }

      .cls-2 {
        stroke: #424742;
        stroke-miterlimit: 3.7;
        stroke-width: 51px;
      }

      .cls-4 {
        fill: #424742;
      }

      .cls-5 {
        clip-path: url(#clippath-1);
      }

      .cls-6 {
        clip-path: url(#clippath-2);
      }

      .cls-7 {
        clip-path: url(#clippath);
      }
    </style>
    <clipPath id="clippath">
      <rect class="cls-1" x="139.9" y="50.6" width="1551.1" height="581.3"/>
    </clipPath>
    <clipPath id="clippath-1">
      <rect class="cls-1" x="69.6" y="19.9" width="1369.7" height="666.7"/>
    </clipPath>
    <clipPath id="clippath-2">
      <rect class="cls-1" x="69.6" y="129.2" width="1705.7" height="696.7"/>
    </clipPath>
  </defs>
  <!-- Generator: Adobe Illustrator 28.6.0, SVG Export Plug-In . SVG Version: 1.2.0 Build 709)  -->
  <g>
    <g id="Layer_1">
      <g class="cls-7">
        <path class="cls-4" d="M369.2,585.9c-5.9,1.9-11.5,4-17,5.9-4,1.5-7.8.3-10.5-2.8-2.2-2.2-3.7-5-5.6-7.4-1.2-1.9-1.9-3.7-2.8-5.9-2.2-5.3-6.5-7.1-11.8-7.1s-5.3.3-7.4,1.2c-8.4,3.4-16.7,6.5-24.8,10.2-8.7,4-17.4,8.7-26,13-2.5,1.2-5.3,2.2-8.1,1.9-5-.3-8.4-3.1-8.4-7.8s-1.5-5.9-3.7-8.1c-3.4-3.4-7.1-6.2-11.2-8.4-3.4-1.5-6.5-3.4-9.9-5.3-7.4-3.7-11.8-9.3-10.8-18.9-1.9,1.2-3.4,2.2-4.7,3.1-13.3,10.8-26.3,21.1-38.7,31.6-7.4,6.2-12.1,14.6-16.1,23.2-.3.9-.6,1.9-1.2,2.8-1.2,2.2-3.7,3.4-6.2,2.8-2.5-.6-4.3-2.8-4.3-5.3s.3-3.4.9-5c3.7-9.3,8.7-18.3,15.8-25.7,4.6-5,10.2-9.3,15.2-13.6,12.1-10.2,24.5-19.8,37.5-28.8,10.2-7.1,20.5-14.6,30.7-21.7,8.4-5.9,17.4-11.5,26.7-15.8,5.6-2.8,11.2-5.9,16.4-9,8.4-5,17.4-9,27-11.5,2.5-.6,5-1.9,7.4-2.8,5-1.9,9.6-4.3,14.6-5.9,5.3-1.9,9.3-4.7,12.4-9.3,1.6-2.5,3.7-4.7,7.1-5,.9-.3,2.2-1.2,2.8-2.5,1.9-3.4,3.7-7.1,5.3-10.5,3.1-6.8,6.5-13.3,10.8-19.2,2.2-3.1,4.3-6.5,6.2-9.6,2.2-3.7,4.6-6.8,8.1-9.3,7.1-5.3,13.9-10.8,22.9-13,8.7-1.9,14.9-7.4,21.1-13,6.2-5.9,12.4-12.1,18.6-18.3s2.2-2.2,2.8-3.1c4-6.5,9.3-11.5,16.1-14.9,3.4-1.9,6.2-4.7,8.4-7.8,5-7.4,9.9-14.9,14.6-22.6,4-6.5,8.7-12.7,14.3-18,8.7-8.7,17-17.4,25.4-26.3,5.3-5.6,11.8-9.9,18.3-13.9,7.4-4.3,14.6-3.4,20.8,2.5s11.8,12.4,17.7,18.6c1.5,1.9,3.1,3.7,4.3,5.6,5,6.8,11.8,11.5,20.1,13.6,2.8.9,5.6,1.9,8.7,2.5,14.3,2.8,26.3,9.6,37.8,18.6,6.5,5.3,11.5,11.8,15.5,18.9,2.8,4.7,5.9,9.6,9,14.6.9-1.2,1.6-1.9,2.2-2.8,1.5-3.1,3.1-6.5,4-9.9,2.5-8.1,6.5-15.2,11.8-21.7,3.4-4,6.5-8.1,9.9-12.4,3.4-4.3,6.5-8.7,9.6-13,3.7-5.6,8.7-6.5,14.3-2.5,1.5,1.2,3.1,2.8,4.6,4.3,4.7,5.3,9.3,10.5,14.3,15.8,1.9,2.2,4,4,7.4,5,3.4-4.3,6.5-8.4,9.9-12.7,1.6-1.9,2.8-4,4.3-5.9,7.4-9.3,14.9-18.6,22.3-28.2,2.8-3.7,5.6-8.1,7.7-12.1,4-8.4,9-16.4,15.8-22.9,8.4-8.1,16.7-16.4,25.1-24.5,12.4-11.8,22-25.4,29.4-40.9,3.7-7.4,8.1-14.6,12.4-21.7,3.7-6.5,8.7-11.8,14.6-16.7,1.9-1.5,3.4-3.1,5-5,11.2-12.7,22.3-25.4,33.8-38.1,5.9-6.5,11.8-12.7,17.7-18.9,4-4.3,9.6-6.5,15.5-7.8,1.9-.3,3.7-.3,5.3.3,5.6,2.2,9.6,6.2,12.1,11.5,1.5,3.7,3.4,7.1,5.6,10.5,3.7,5.6,6.8,11.8,9.3,18.3,3.7,10.2,9,19.8,14.6,29.4,2.5,4.3,6.2,7.1,11.2,9s9.9,3.1,15.2,3.4c10.8.9,18.6,6.5,25.1,14.6,1.9,2.5,3.4,6.2,3.7,9.3,1.2,9.3,5.9,16.7,10.2,24.5,2.5,4,6.2,7.1,10.2,9.3,5.3,3.1,10.5,6.2,15.5,9.6,2.8,1.9,5.3,4.3,7.8,6.8,4,3.7,7.8,8.1,11.8,11.5,6.5,5.6,13,11.2,19.8,16.7.9-1.2,2.2-2.2,3.1-3.4,7.4-9.9,15.2-19.8,22.3-30.1,5-7.1,11.5-12.4,18.9-16.4,4.7-2.5,9-5.6,12.7-9,2.2-2.2,4.7-4,7.1-5.9,5.6-4.3,10.5-9,15.2-14.3,2.5-2.5,5.3-4.6,8.1-6.8,3.4-2.5,7.1-2.2,10.8.3,1.5,1.2,3.1,2.2,4.3,3.7,18.3,20.5,38.4,38.7,59.2,56.4,5.9,5.3,11.2,10.8,15.2,17.7,1.2,2.2,2.8,4.3,4,6.5,5,9,12.4,15.5,21.4,20.5,11.2,6.2,22,12.4,33.2,18.6,19.5,10.8,37.2,24.8,53.6,39.7,5.6,5,9.3,11.5,13.6,17.4,4,5.9,8.1,11.8,12.1,17.7,5.3,7.1,12.1,12.1,20.1,16.1,5.3,2.5,9.9,5.9,14.9,9,2.5,1.5,4.7,4,6.2,6.2,5.9,8.1,12.1,16.4,17.7,24.8,3.1,4.6,5.6,9.9,8.1,14.9,2.2,4.7,5.3,8.4,8.7,12.1,4.3,4.3,8.7,8.7,12.4,13.3,6.8,8.1,14.3,15.2,22.9,21.7,11.5,8.7,23.2,17,35.3,24.5,11.2,6.8,20.5,15.5,27.6,26.7,8.4,13,17,25.7,25.4,38.4,5,7.4,10.5,14.3,17,20.1,1.2.9,2.8,1.9,4.3,2.5,4,1.5,5.9,4.3,5.3,7.7-.6,3.4-3.7,5.3-7.8,5-9.6-.6-17.7-4.7-25.7-9.3-7.1-4.3-12.7-10.5-16.4-18.3-4.3-9.3-11.2-15.8-19.5-21.4-14.6-9.6-28.5-19.5-43.1-29.4-1.2-.9-2.5-1.5-4-1.9.6,1.6,1.2,3.4,1.9,5,1.9,5.6,4,11.2,5.9,16.7.6,2.2.3,4.3.6,6.8.3,1.2.3,2.5.9,3.4,6.2,8.1,9,17.7,10.8,27.6,1.9,9.9,8.1,17.4,15.5,23.9,3.4,2.8,7.1,5.3,10.8,7.4,5.9,3.7,11.2,7.7,15.8,13,1.2,1.2,2.2,3.1,2.8,4.7.9,2.5-.3,5.3-2.5,6.8-2.2,1.5-4.7,1.2-6.8,0-1.2-.6-2.2-1.9-3.1-2.8-4.3-4.3-9.3-8.4-14.9-11.5-11.5-6.5-20.5-15.8-26.7-27.6-1.9-3.7-3.1-7.7-3.7-11.8-1.5-8.7-4.6-16.4-9.9-23.9-8.1-11.5-14.6-23.9-19.8-37.2-2.5-6.5-5.6-13-9.3-18.6-4.3-6.2-9.9-11.5-15.2-17.4-5.3-5.9-11.2-11.5-16.1-17.4-11.8-13.6-19.2-29.4-22.3-47.1-.9-5.9-3.7-9.6-8.4-13-7.4-5.6-15.8-9-24.8-11.2-7.7-1.9-13-6.2-16.7-13-3.4-6.2-7.4-11.8-12.1-17-7.1-8.1-13.9-16.4-21.1-24.8-2.8-3.4-5.6-7.1-8.1-10.8-4-5.9-8.4-10.8-14.3-14.9-13-9-26-17.4-40.6-22.9-4.3-1.6-9-3.1-13.3-4-9.3-2.2-16.7-7.4-21.7-15.5-3.7-5.9-6.8-12.1-9.9-18.3-4.6-9-9.6-17.4-15.8-25.4-12.4-15.8-24.8-31.9-37.2-48-.9-1.2-2.2-2.5-3.4-4-2.8,7.4-5,14.6-5.3,22-.3,5.6-.3,11.2-.3,16.7s.3,9.9,2.2,14.6c.9,2.5.6,5.3.3,8.1-1.2,9-3.1,18.3-4.3,27.3-.9,6.8-.9,13.6,2.8,19.8,1.9,3.4,3.1,7.1,3.1,10.8s-1.2,7.4-4.6,9.6c-3.7,2.5-7.4,5-11.8,7.1-5.3,2.5-9.3.6-11.5-5-2.8-7.4-5.6-14.9-8.4-22.3-1.9-4.7-4.3-9-6.8-13.3-.9-1.9-2.5-3.7-4.7-3.7-5.9-.3-9.6-3.7-12.7-8.4-.9-1.5-2.2-3.1-3.1-4.6-1.5-2.8-3.4-5-6.5-6.5-1.9-.9-3.1-2.8-5-4.3-2.5,2.8-5,5.9-7.4,8.7,7.4,12.1,15.2,23.9,22.6,36,2.5,4.3,5.3,8.7,7.1,13,4,9,8.4,18,14.6,26,4,5.3,8.4,9.9,13,15.2,1.2-1.6,1.9-2.5,2.5-3.4,2.5-4,5.3-8.1,7.8-12.1,1.9-2.8,4.7-4,8.1-3.7,10.5.3,20.1,3.1,29.1,8.7,5.3,3.1,10.8,5.9,16.7,8.4,8.1,3.4,15.8,8.1,22.9,13,2.5,1.5,4.3,4,6.8,5.9,6.5,5.3,13,10.5,19.8,15.5,5.3,3.7,9,8.4,11.2,14.3,4.6,11.8,9.9,23.6,17.7,33.5,8.7,11.2,18,22,27.3,32.9,3.7,4.6,8.1,8.7,12.1,13.3,6.2,6.8,11.2,14.6,15.2,22.9,4.6,9.9,9.3,19.8,13.9,29.8.9,1.9,1.5,3.7,3.4,4.6.9.6,1.6,1.6,2.2,2.5,8.7,11.8,17.4,23.6,27.6,34.1,1.9,1.9,3.7,3.4,5.9,4.7,7.7,4.6,15.5,9,23.2,13.6,1.2.6,2.8,1.2,4.3,1.9,4,1.2,5.9,4.7,4.6,8.7-1.2,3.4-5,5.3-8.7,4.3-1.2-.3-2.5-.9-3.4-1.5-2.8-1.6-5.6-3.4-8.7-4.7-1.9-.9-3.7-.9-5.6-1.9-2.5-.9-5-1.5-6.8-3.1-10.8-7.8-21.7-15.5-32.5-23.2-6.5-4.3-11.8-9.9-15.2-17-1.9-3.7-3.7-7.7-5.6-11.5-.3-.9-.9-1.9-.9-2.8,0-4.3-2.8-7.1-5-9.9-1.2-1.6-2.5-3.1-3.7-4.7-12.7-13.6-24.8-27.9-35-43.4-3.4-5-6.8-10.2-10.2-15.2-2.8-4.3-5.9-8.4-9-12.4-5.9-7.8-12.1-15.2-18-22.9-2.5-3.4-5-6.8-6.8-10.2-7.4-13.6-16.7-25.7-28.5-35.6-5.3-4.3-10.8-8.4-16.7-11.5-6.2-3.1-11.8-7.1-18-10.8-4-2.5-7.7-4.7-11.8-7.1-3.7-2.2-5-1.9-6.5,2.2-1.5,3.4-2.5,7.1-3.7,10.8-.6,2.2,0,3.7,1.6,5.3,9.3,8.4,12.4,19.8,15.8,31,.6,1.9.3,4,0,5.9-1.9,10.8-2.8,22-5.9,32.9-1.9,6.2-3.7,12.1-5.3,18.6-1.2,5.6-1.9,11.5-2.5,17.7,2.2.6,4.3,1.2,6.2,1.9,8.4,1.5,14.9,5.9,20.8,12.4,9.3,10.5,17.7,21.4,28.2,30.7,3.7,3.1,6.2,7.4,8.1,12.1,1.9,5.3,4.3,10.2,6.5,15.2,1.2,3.1,2.5,6.2,2.2,9.3-.6,7.1-.9,14.6-1.9,21.7-.3,3.4-1.9,6.5-3.4,9.6-3.1,5.6-8.7,5.9-13,1.2-2.5-3.1-5-6.2-6.8-9.6-4-8.1-9.3-14.9-15.8-21.1-5-4.7-9-9.9-11.5-16.1-3.1-7.1-8.4-12.1-15.5-15.2-4.7-1.9-9-4.3-13.9-6.8-.3,1.9-.6,3.4-.9,5-.6,6.2-.9,12.4-2.2,18.6-.9,4.7-2.2,9.3-4.3,13.3-4.7,9.6-10.2,18.6-15.2,27.9-3.1,5.9-7.4,10.8-13,14.3-2.5,1.5-4.7,3.1-6.2,5.9-.6.9-1.6,1.9-2.5,2.2-4.3,2.8-9.6-.3-9.6-5.6s.6-2.8.9-4c.6-2.8,1.2-5.9,1.9-8.7.3-1.9.9-3.7,1.6-5.3,3.4-11.2,6.8-22.3,9.9-33.5,2.5-9,2.2-18.3,0-27.3-1.5-7.1-3.7-14.3-5.6-21.4-.9-3.7-1.2-7.8-.3-11.5,2.8-10.8,5.6-21.4,8.4-32.2,2.8-10.8,5.6-22,8.4-33.2.6-2.2.6-4.6.6-6.8-.6-5.9.6-11.5,2.2-17.4,2.2-7.4,4.3-14.6,6.5-22,1.2-3.7.3-7.4.3-11.5s-2.8-8.4-6.2-11.5c-10.8-10.2-19.8-22.6-25.7-36.3-4.6-10.2-10.2-19.8-16.7-29.1-2.8-4.3-5.3-8.7-7.8-13.3-2.5-4.6-5-9-8.7-12.4-6.5-6.2-12.7-12.1-19.2-18-6.2-5.6-12.1-11.5-18.3-17-3.1-2.8-6.2-5.9-9.9-8.1-4.3-2.8-9-5.3-14.3-8.4-.3,2.2-.6,4-.6,5.6-.3,9.3-.3,18.6,1.2,27.6.6,4.3,1.2,9-.6,13-2.5,6.2-2.2,12.4-.9,18.6,2.5,10.8,1.2,21.4-.6,32.2-.9,5.3-1.9,10.2-2.8,15.5-.6,4.3-.3,8.7,1.2,13,4,9.9,8.7,19.5,14.3,28.5,4,6.8,7.1,13.9,10.2,21.1,2.5,5.9,3.1,12.1.3,18.3-3.4,7.1-9.6,8.4-14.6,2.2-5.9-7.1-11.8-14.6-17.7-22-8.7-11.5-17-22.9-25.4-34.1-4-5.6-7.4-11.5-10.2-17.7-1.9-4.3-2.5-8.4-1.2-13,1.5-5,3.1-9.9,5-14.9,5-13.6,5.6-9.9-1.9-21.1-4-6.5-7.4-13-10.2-20.1-1.6-3.7-1.9-7.4-1.2-11.2l1.9-9.3c.6-4,.9-8.1,1.2-12.4.3-9.3.3-18.9.9-28.2.6-10.5-2.5-19.8-6.2-29.4-3.7-9-7.7-17.7-11.8-26.3-.3-.6-.6-1.2-1.2-1.9-5.3-5.3-8.7-11.8-11.8-18.3-4-8.1-7.1-16.7-11.2-24.8-2.8-5.9-6.2-11.5-9.6-17-.3-.6-.6-1.2-.9-1.2-1.2-.6-2.8-1.5-4.3-1.2-.9.3-1.9,1.9-2.2,3.1-1.2,6.5-2.5,13-3.4,19.8-1.6,10.5-2.8,20.8-4,31.3-.6,6.5-.6,13-1.2,19.5-1.5,18.9-6.5,37.2-15.5,54.2-5.6,10.2-9,20.8-11.5,31.9-.6,3.7-1.2,7.4-1.2,10.8,0,10.8.3,21.7.6,32.5.3,4.7-.6,9-2.8,13-3.4,6.8-8.4,12.4-13.6,18-4.6,5-9.6,9.3-13.6,14.6-6.5,8.1-12.1,16.7-18.3,25.1-2.2,3.1-3.1,7.1-3.4,10.8-.6,7.4-1.5,14.6-1.9,22-.6,9.3,1.9,18,7.4,25.7,4.6,6.8,8.4,13.9,9.9,22,.6,3.4.9,7.1.3,10.5-1.5,7.4-4.6,14.6-9,21.1-3.7,5.6-7.4,11.2-11.2,16.7-5.6,8.4-7.1,17.4-4.6,27.3,4,16.7,9.3,32.9,15.5,48.7,5.9,14.6,12.1,29.1,17.7,44,2.8,7.4,5,15.5,7.1,23.2.9,4-1.2,7.4-4.7,8.4-2.2.6-4.3.3-6.2-1.2-2.8-2.5-5.9-5-8.4-7.8-1.5-1.9-2.8-4-3.7-6.2-5-10.5-11.8-19.8-18.3-29.1-3.1-4.3-5.6-9.3-8.4-13.6-4.3-6.8-8.4-13.6-13-19.8-3.4-4.7-6.5-9.6-9-14.9-1.6-3.4-3.4-6.8-5.6-10.2-1.5-2.5-3.7-4.6-6.2-6.5-3.4-2.5-7.4-3.4-11.8-1.6-4.7,2.5-9.3,4.7-13,7.8-7.4,5.9-14.6,12.4-22,18.3-6.8,5.9-13.9,11.5-20.8,17-8.4,6.8-16.7,13.6-25.1,20.8-13.3,11.2-28.5,19.2-45.3,24.2-4.6,1.6-9.9,1.9-14.6,2.2-6.8.3-10.8-5-9.3-11.5,2.5-11.2,6.5-21.7,12.7-31.6,11.2-17.7,22.6-35.3,36.3-51.1,5.9-6.5,11.2-13.6,16.7-20.5,1.2-1.9,2.2-4,3.1-5.9.6-1.6.3-2.8-.9-3.7-2.2-1.5-4.3-2.8-6.8-4.3-1.2-.6-2.5-.6-3.7-.9-15.5-6.2-32.2-8.1-48.3-12.4-6.8-1.9-12.1-5.3-17.7-9.3-3.1-2.5-3.7-6.2-1.5-9.6,3.7-5.3,7.4-10.5,11.2-15.5,3.1-3.7,7.4-6.2,11.8-8.1,9-3.7,17-9,24.5-15.5,1.2-.9,2.5-2.2,3.1-3.4,1.9-5.9,6.2-10.2,10.5-14.3,5.9-5,9.6-11.5,13-18.3,2.2-4.3,2.5-9.3,0-13.6-5.9-10.2-9-21.4-11.8-32.8-1.6-5.6-3.1-11.2-4.7-17.4-.9.6-1.9,1.2-2.2,1.9-2.5,3.1-5,5.9-7.1,9-3.7,5-6.8,9.9-9,15.8-2.8,8.1-6.8,15.2-11.8,22-1.6,2.2-2.5,4.3-4,6.5-.9,1.2-2.2,2.5-3.4,3.7-1.6,1.2-3.1,2.5-2.8,5,0,1.2-.6,2.5-1.5,3.4-7.8,8.7-15.2,17.4-22.9,25.7-5.6,6.2-12.7,11.2-19.2,16.4-4.7,3.7-9,7.1-13.3,11.2-6.2,5.6-12.1,11.5-18.3,17.4-1.6,1.6-3.1,3.1-4.3,4.7-9,12.4-18.9,24.2-26.7,37.5-4.3,7.4-10.5,13-16.7,18.6-3.7,3.7-7.4,7.4-11.8,10.5-4.3,3.7-9,6.8-13.9,9.9-4.7,3.1-9,6.2-13,10.2s-4.6,4-6.8,5.9c-5.6,5.3-11.2,10.5-17,15.5-1.5,1.2-2.2,2.8-1.9,5,.3,1.5,0,3.4.3,5,.6,5.6-.6,11.2-3.1,16.1-5.9,12.7-14.3,23.2-26.7,30.4-5,2.8-9.6,5.9-14.6,9-1.9,1.2-3.7,2.5-4.7,4.6-1.9,3.4-5.3,4.7-9,4.3-2.8-.3-5-1.5-5.9-4.3-.9-2.8-.6-5.3,1.2-7.4.9-.9,2.2-1.9,3.1-2.8,3.7-2.5,7.4-5,11.2-7.1,4.3-2.8,8.7-5.6,13-8.1,10.2-5.9,16.4-15.2,21.1-25.7.9-1.9,1.2-4,1.2-6.2,0-3.7-.3-7.8-.6-11.5-.3-4.3.6-8.4,2.8-11.8,1.9-3.1,3.7-5.9,6.2-8.7,5-6.2,10.2-12.1,15.5-18,1.9-2.2,3.4-4.3,3.7-7.4.6-4,2.8-7.4,5.9-10.2,2.2-1.9,4-3.4,6.5-5,13-8.1,22.9-19.2,31.3-31.6,5.6-8.7,11.2-17.4,15.5-27,3.1-7.4,8.1-13.9,13.6-19.8,5-5.6,10.2-10.5,15.5-16.1,3.1-3.1,6.2-6.5,8.4-10.2,5-8.1,12.4-11.8,21.4-13,5-.6,9.9-1.6,14.9-.3,2.5.6,4.7-.6,6.8-2.2,7.8-5.9,15.8-11.8,23.6-17.7,4-3.1,4.3-4.3,1.9-8.4-5-8.1-9.9-16.1-14.6-23.9-.6-.9-1.2-1.9-2.2-2.8-10.2-9-20.8-17.4-34.4-20.1-3.4-.6-6.8-1.9-10.2-2.8-12.7-3.4-22.6-9.9-30.4-20.5-3.7-5.3-8.4-9.9-12.4-14.9-.3.3-.6.3-.9.6.3,1.6.6,3.1,1.2,4.7,4.7,10.8,3.1,20.8-2.8,30.7-4.6,7.4-7.4,15.5-10.2,23.9-4.3,13-9.9,25.7-14.9,38.7-5,13.3-15.5,21.4-26.7,28.8-2.5,1.5-5.3,1.9-8.1.3-2.8-1.5-3.7-4.3-3.4-7.4.6-4.6,1.5-9.3,2.8-13.6,3.1-10.8,4.7-22.3,6.2-33.5.3-2.8.3-5.6-.9-8.4-1.2-2.8-2.2-5.9-3.4-9.3-8.1,13.3-15.2,26.3-17,41.8-.9,6.8-1.9,13.6-2.5,20.5-.9,6.8-3.1,13.3-6.8,18.9-.9,1.6-1.9,2.8-3.1,4-16.1,19.2-26.3,41.8-36.9,64.2-1.6,3.4-2.8,7.1-3.1,11.2-.9,6.8-2.8,13-5.6,19.2-5.3,12.7-10.5,25.4-16.1,38.1-5.9,13.6-13.3,26.7-22,38.7-3.4,4.7-6.8,9.6-10.2,14.3-.9,1.2-1.9,2.2-2.8,3.1-2.2,1.5-4.3,1.9-6.8.6s-3.7-3.1-3.7-5.9c-1.2-1.6-.9-3.1-.6-4.3ZM410.8,399.3c-1.6.3-2.2.6-2.8.6-4.3,1.2-7.8,4.3-11.5,6.8-4,2.5-7.4,5.9-9.9,10.5-1.2,2.2-2.5,4.3-3.7,6.2-5.9,8.1-10.5,16.7-15.2,25.7-.9,2.2-1.2,4-.6,6.2.9,3.4,1.9,7.1,2.5,10.8,1.6,7.1,2.8,14.3,4.3,21.4,2.5,12.4,3.1,24.5-1.5,36.6-1.9,4.3-2.8,9.3-3.7,13.9-.9,3.7-1.2,7.4-.3,11.5,1.9,8.1,3.4,16.4,5.3,24.5,0,.3.3.3.6.6.6-1.2.9-2.5,1.5-3.7,4-11.8,8.1-23.6,12.4-35.3,1.9-4.7,3.7-9.6,6.2-13.9,8.4-13.9,14.3-29.1,20.5-44,.9-2.2,1.6-4.3.9-7.1-1.6-7.7-1.2-15.5,1.9-22.9,1.2-2.8,2.2-5.9,2.5-9,.6-3.4.9-7.1,0-10.2-2.8-10.2-6.2-19.5-9.3-29.1ZM920,200c0-5.6.3-11.2,0-16.7,0-1.9-.9-3.7-1.5-5.6-.3-1.2-1.2-2.5-1.6-3.7-.6-3.1-2.8-4.7-5.9-4-1.2.3-2.5.9-3.4,1.6-12.7,7.7-22,18.3-27,32.2-2.8,7.8-6.8,14.6-11.8,21.1-8.7,11.2-17.7,22.3-27.3,32.5-1.6,1.6-3.1,3.4-4,5.3-1.9,3.7-1.2,9,1.6,11.5,2.5,2.2,6.2,3.7,11.2.9,2.2-1.2,4.7-2.8,7.4-3.4,7.8-1.5,13.3-5.9,18.3-11.8,7.4-9,15.8-17.7,25.7-24.2,2.2-1.6,4.7-2.8,7.1-3.7,3.1-.9,5.6-2.8,7.8-5,3.1-3.4,3.7-7.4,3.7-11.5-.3-4.7-.3-10.2-.3-15.5ZM811.8,378.5v-19.5c0-1.9-.3-3.7-1.2-5.3-.9-1.6-1.9-2.8-1.9-4.7-.3-1.9-1.5-3.4-3.4-3.1-1.2,0-2.8.9-4,1.9-.6.3-.6,1.2-.9,1.9-5.9,13.6-12.1,27.3-18,40.9-1.2,3.1-1.6,6.2-1.2,9.6.9,5.9,1.5,11.5,2.5,17.4.6,5.6,1.6,11.2,2.2,16.7.3,2.5,1.5,4.6,4.3,5.3,2.5.6,4.3-.9,5.9-2.8,4-5,7.4-10.2,9.3-16.1,1.2-3.7,2.8-7.4,4-11.2,1.6-4.3,2.5-8.7,2.5-13.3v-17.7Z"/>
      </g>
      <path class="cls-4" d="M974.9,550.9c-5,0-8.4-.9-11.2-3.4-9.6-7.4-18-15.8-21.4-27.9-1.2-4-3.7-7.4-6.8-9.9-4-3.1-7.1-7.1-8.4-12.1-1.9-8.1-7.1-13.3-13.3-18-4-3.1-5-6.5-4-11.5,1.2-6.8,2.8-13.6,5-20.1.9-2.8,2.8-4,5.6-4.6,8.1-1.9,13.6,1.9,18.3,7.7.6.6.9,1.6,1.5,1.9,10.2,9.6,14.3,22,17.7,34.7,1.6,5.9,4,10.8,8.1,15.2,3.1,3.1,5.6,7.1,7.8,11.2,3.7,6.8,7.4,13.6,9.6,21.4.3,1.2.6,2.2.9,3.4.9,6.2-3.7,12.1-9.3,12.1Z"/>
      <path class="cls-4" d="M1160.5,479.9c-.3,8.4-1.9,15.5-4.3,22.3-.9,2.8-3.1,4.7-6.2,5-3.1.3-5.3-1.2-6.5-4-1.6-2.8-2.8-5.9-3.7-9-1.6-4-2.8-8.4-4-12.4-.6-2.2-1.5-4-2.2-5.9-3.7-12.7-10.8-23.9-18.9-34.1-2.5-3.1-4.7-6.2-6.5-9.6-2.5-4-1.9-5.6.9-9.6,3.1-4.7,6.8-5.3,11.8-4.7,7.8.9,15.2,3.7,22.3,6.5,3.1,1.2,5,3.7,6.2,6.8,3.4,9,6.2,18,7.4,27.6.6,3.7,1.5,7.1,2.2,10.8.3,4,1.2,7.7,1.6,10.2Z"/>
      <g class="cls-5">
        <path class="cls-2" d="M325.1,397.5c-41.9,0-72.3-8.2-91.3-24.6-19-16.4-28.4-41-28.4-73.7s9.5-56.9,28.4-73.2c19-16.3,49.4-24.5,91.3-24.5s67,7,86.7,21c19.7,14,30.5,35.5,32.3,64.7h-65.1c-1.6-10.9-6.9-18.9-15.7-24.1-8.8-5.2-21.5-7.8-38.2-7.8s-26.1,1.8-34.2,5.4c-8.1,3.6-13.7,8.8-16.9,15.4-3.2,6.6-4.8,14.2-4.8,22.9s1.6,16.5,4.8,23.2c3.2,6.7,8.8,11.9,16.9,15.6,8.1,3.7,19.4,5.6,34.2,5.6s29.4-2.6,38.2-7.9c8.8-5.3,14-13.4,15.7-24.5h65.1c-1.8,29.2-12.5,50.9-32.2,65.1-19.6,14.1-48.5,21.2-86.8,21.2ZM573.4,397.5c-41.9,0-72.3-8.2-91.3-24.6-19-16.4-28.4-41-28.4-73.7s9.5-56.9,28.4-73.2c19-16.3,49.4-24.5,91.3-24.5s72.1,8.2,91.2,24.5c19.1,16.3,28.6,40.7,28.6,73.2s-9.5,57-28.6,73.5c-19,16.5-49.4,24.8-91.2,24.8ZM573.4,343.6c14.9,0,26.4-1.9,34.4-5.7,8.1-3.8,13.7-9,16.9-15.6,3.2-6.6,4.8-14.3,4.8-23.1s-1.6-16.3-4.7-22.8c-3.1-6.6-8.7-11.7-16.7-15.4-8.1-3.7-19.6-5.6-34.7-5.6s-26.4,1.8-34.5,5.4c-8.1,3.6-13.6,8.8-16.7,15.4-3.1,6.6-4.6,14.2-4.6,22.9s1.5,16.5,4.6,23.2c3.1,6.7,8.7,11.9,16.7,15.6,8.1,3.7,19.6,5.6,34.5,5.6ZM822.4,397.5c-41.9,0-72.3-8.2-91.3-24.6-19-16.4-28.4-41-28.4-73.7s9.5-56.9,28.4-73.2c19-16.3,49.4-24.5,91.3-24.5s72.1,8.2,91.2,24.5c19.1,16.3,28.6,40.7,28.6,73.2s-9.5,57-28.6,73.5c-19,16.5-49.4,24.8-91.2,24.8ZM822.4,343.6c14.9,0,26.4-1.9,34.4-5.7,8.1-3.8,13.7-9,16.9-15.6,3.2-6.6,4.8-14.3,4.8-23.1s-1.6-16.3-4.7-22.8c-3.1-6.6-8.7-11.7-16.7-15.4-8.1-3.7-19.6-5.6-34.7-5.6s-26.4,1.8-34.5,5.4c-8.1,3.6-13.6,8.8-16.7,15.4-3.1,6.6-4.6,14.2-4.6,22.9s1.5,16.5,4.6,23.2c3.1,6.7,8.7,11.9,16.7,15.6,8.1,3.7,19.6,5.6,34.5,5.6ZM954.4,394.8v-190.5h63.9v136.6h132v53.9h-196Z"/>
      </g>
      <g class="cls-6">
        <path class="cls-2" d="M290.6,611.8v-136.6h-85.2v-53.9h234v53.9h-84.9v136.6h-63.9ZM451.7,611.8v-190.5h149.6c14.5,0,27.2,3,38.1,9.1,10.9,6.1,19.4,14.5,25.6,25.3,6.2,10.8,9.2,23.3,9.2,37.4s-3.2,27-9.7,38c-6.4,10.9-15.3,19.3-26.5,25.1l34.3,55.6h-75.4l-28-46.5h-53.4v46.5h-63.9ZM515.6,511.4h72.2c3.2,0,6.6-.3,10.2-.8,3.5-.6,6.5-2.1,9-4.7,2.5-2.6,3.7-6.8,3.7-12.8s-1.2-10.2-3.7-12.8c-2.4-2.6-5.4-4.1-9-4.5-3.5-.4-6.9-.7-10.2-.7h-72.2v36.2ZM683.9,611.8l85.2-190.5h92.8l84.9,190.5h-70.2l-15.6-36.2h-91.2l-15.8,36.2h-70.2ZM787.8,530.4h55l-27.5-63.7-27.5,63.7ZM959.1,611.8v-190.5h63.9v190.5h-63.9ZM1037.7,611.8v-190.5h63.9v136.6h132v53.9h-196ZM1365.9,614.5c-26,0-48.1-1.9-66.5-5.7-18.3-3.8-32.2-10.7-41.9-20.7-9.6-10-14.4-24.4-14.4-43.1h63.9c0,4.2,1.6,7.8,4.9,10.8,3.3,3,9.3,5.2,18.2,6.8,8.9,1.5,21.7,2.3,38.4,2.3s26.4-.4,34.2-1.3c7.7-.9,13-2.3,15.7-4.2,2.8-1.9,4.3-4.5,4.3-7.8s-.7-4.9-2.1-6.4c-1.3-1.6-4.1-2.8-8.2-3.8-4.1-1-9.9-1.7-17.5-2.2-7.6-.5-17.7-1-30.2-1.5-28.3-1.1-51.1-3.6-68.4-7.5-17.2-3.9-29.8-10.1-37.7-18.6-7.9-8.5-11.8-20.1-11.8-34.6,0-21,10-36,30-45,20.1-9,48.5-13.5,85.4-13.5s45.4,2.2,62.7,6.5c17.3,4.3,30.5,11.3,39.6,21,9.1,9.6,13.6,22.5,13.6,38.6h-63.7c0-6.9-4.6-11.3-13.9-13.4-9.3-2.1-23.9-3.2-43.8-3.2s-22.2.3-28.9,1c-6.7.6-11.3,1.8-13.7,3.5-2.4,1.7-3.7,4.2-3.7,7.5s1.3,5.6,4.1,7.2c2.7,1.6,8,2.7,15.7,3.3,7.7.6,19.2,1.3,34.5,2,18.9.9,35.8,2.1,50.7,3.7,15,1.6,27.7,4.2,38.2,7.9,10.5,3.7,18.6,9.2,24.3,16.5,5.6,7.3,8.4,17.1,8.4,29.4s-4.8,30.7-14.4,40c-9.6,9.3-23.4,15.7-41.4,19.2-17.9,3.5-39.5,5.3-64.7,5.3Z"/>
      </g>
      <path class="cls-3" d="M325.1,397.5c-41.9,0-72.4-8.2-91.3-24.6-19-16.4-28.4-41-28.4-73.6s9.5-56.9,28.4-73.2c19-16.3,49.4-24.5,91.3-24.5s67,7,86.7,21c19.7,14,30.4,35.6,32.3,64.8h-65c-1.6-10.9-6.9-18.9-15.7-24.1-8.8-5.2-21.5-7.8-38.2-7.8s-26.1,1.8-34.2,5.5c-8.1,3.6-13.7,8.8-16.9,15.4-3.2,6.6-4.8,14.3-4.8,23s1.6,16.4,4.8,23.1c3.2,6.7,8.8,11.9,16.9,15.6,8.1,3.7,19.5,5.6,34.2,5.6s29.4-2.6,38.2-7.9c8.8-5.3,14-13.4,15.7-24.5h65c-1.8,29.2-12.5,50.9-32.1,65.1-19.6,14.2-48.5,21.2-86.8,21.2Z"/>
      <path class="cls-3" d="M573.4,397.5c-41.9,0-72.4-8.2-91.3-24.6-19-16.4-28.4-41-28.4-73.6s9.5-56.9,28.4-73.2c19-16.3,49.4-24.5,91.3-24.5s72.1,8.2,91.2,24.5c19.1,16.3,28.6,40.7,28.6,73.2s-9.5,57-28.6,73.5c-19,16.5-49.4,24.8-91.2,24.8ZM573.4,343.6c14.9,0,26.3-1.9,34.4-5.7,8.1-3.8,13.7-9,16.9-15.6,3.2-6.6,4.8-14.3,4.8-23s-1.5-16.3-4.6-22.9c-3.1-6.5-8.7-11.7-16.7-15.4-8.1-3.7-19.6-5.6-34.7-5.6s-26.4,1.8-34.4,5.5c-8.1,3.6-13.6,8.8-16.7,15.4-3.1,6.6-4.6,14.3-4.6,23s1.5,16.4,4.6,23.1,8.7,11.9,16.7,15.6c8.1,3.7,19.6,5.6,34.4,5.6Z"/>
      <path class="cls-3" d="M822.4,397.5c-41.9,0-72.4-8.2-91.3-24.6-19-16.4-28.4-41-28.4-73.6s9.5-56.9,28.4-73.2c19-16.3,49.4-24.5,91.3-24.5s72.1,8.2,91.2,24.5c19.1,16.3,28.6,40.7,28.6,73.2s-9.5,57-28.6,73.5c-19,16.5-49.4,24.8-91.2,24.8ZM822.4,343.6c14.9,0,26.3-1.9,34.4-5.7,8.1-3.8,13.7-9,16.9-15.6,3.2-6.6,4.8-14.3,4.8-23s-1.5-16.3-4.6-22.9c-3.1-6.5-8.7-11.7-16.7-15.4-8.1-3.7-19.6-5.6-34.7-5.6s-26.4,1.8-34.4,5.5c-8.1,3.6-13.6,8.8-16.7,15.4-3.1,6.6-4.6,14.3-4.6,23s1.5,16.4,4.6,23.1,8.7,11.9,16.7,15.6c8.1,3.7,19.6,5.6,34.4,5.6Z"/>
      <path class="cls-3" d="M954.4,394.8v-190.5h64v136.6h132v53.9h-196Z"/>
      <path class="cls-3" d="M290.6,611.8v-136.6h-85.2v-53.9h234.1v53.9h-84.9v136.6h-64Z"/>
      <path class="cls-3" d="M451.7,611.8v-190.5h149.7c14.5,0,27.2,3,38.1,9.1,10.9,6.1,19.4,14.5,25.6,25.3,6.2,10.8,9.3,23.3,9.3,37.4s-3.2,27-9.7,38c-6.4,11-15.3,19.4-26.5,25.2l34.3,55.5h-75.4l-28-46.5h-53.3v46.5h-64ZM515.7,511.3h72.1c3.3,0,6.7-.3,10.2-.8,3.5-.5,6.5-2.1,9-4.6,2.5-2.5,3.7-6.8,3.7-12.8s-1.2-10.3-3.7-12.8c-2.4-2.5-5.4-4-9-4.5-3.5-.5-6.9-.7-10.2-.7h-72.1v36.2Z"/>
      <path class="cls-3" d="M683.9,611.8l85.2-190.5h92.8l84.9,190.5h-70.2l-15.5-36.2h-91.2l-15.8,36.2h-70.2ZM787.8,530.4h55l-27.5-63.7-27.5,63.7Z"/>
      <path class="cls-3" d="M959,611.8v-190.5h64v190.5h-64Z"/>
      <path class="cls-3" d="M1037.7,611.8v-190.5h64v136.6h132v53.9h-196Z"/>
      <path class="cls-3" d="M1365.9,614.5c-25.9,0-48.1-1.9-66.4-5.7-18.3-3.8-32.3-10.7-41.9-20.7-9.6-10-14.4-24.3-14.4-43h64c0,4.2,1.6,7.8,4.9,10.8,3.3,3,9.3,5.3,18.2,6.8,8.9,1.5,21.7,2.3,38.4,2.3s26.4-.4,34.1-1.4c7.7-.9,13-2.3,15.8-4.2,2.8-1.9,4.2-4.5,4.2-7.8s-.7-4.9-2-6.4c-1.4-1.5-4.1-2.8-8.2-3.8s-9.9-1.7-17.6-2.2c-7.6-.5-17.7-1-30.2-1.5-28.3-1.1-51.1-3.6-68.3-7.5-17.2-3.9-29.8-10.1-37.7-18.6-7.9-8.5-11.8-20-11.8-34.6,0-21,10-36,30.1-45,20.1-9,48.5-13.5,85.3-13.5s45.4,2.2,62.7,6.5c17.3,4.3,30.5,11.3,39.6,20.9,9.1,9.6,13.6,22.5,13.6,38.6h-63.7c0-6.9-4.6-11.4-13.9-13.5-9.3-2.1-23.9-3.1-43.8-3.1s-22.1.3-28.9,1c-6.7.6-11.3,1.8-13.8,3.5-2.4,1.7-3.7,4.2-3.7,7.5s1.4,5.7,4.1,7.2c2.7,1.5,7.9,2.6,15.6,3.3,7.7.6,19.2,1.3,34.4,2,18.9.9,35.8,2.1,50.8,3.7,15,1.5,27.7,4.2,38.2,7.9,10.5,3.7,18.6,9.2,24.2,16.5,5.6,7.3,8.4,17,8.4,29.4s-4.8,30.8-14.4,40c-9.6,9.3-23.4,15.6-41.4,19.2-18,3.5-39.6,5.3-64.8,5.3Z"/>
    </g>
  </g>
</svg>